# xmcd
#
# Track frame offsets: 
#        150
#        12284
#        30057
#        41955
#        63457
#        80202
#        99950
#        117868
#        133122
#        147253
#
# Disc length: 2175 seconds
#
# Revision: 1
# Processed by: cddbd v1.5.2PL0 Copyright (c) Steve Scherf et al.
# Submitted via: ExactAudioCopy v1.0b3
#
DISCID=82087d0a
DTITLE=Blue Rodeo - A Merrie Christmas to You
DYEAR=2014
DGENRE=Christmas
TTITLE0=Jesus Christ
TTITLE1=Have Yourself a Merry Little Christmas
TTITLE2=If We Make It Through December
TTITLE3=River
TTITLE4=O Come All Ye Faithful
TTITLE5=Getting Ready for Christmas Day
TTITLE6=Glad to Be Alive
TTITLE7=Home to You This Christmas
TTITLE8=Song for a Winter's Night
TTITLE9=Christmas Must Be Tonight
EXTD=
EXTT0=
EXTT1=
EXTT2=
EXTT3=
EXTT4=
EXTT5=
EXTT6=
EXTT7=
EXTT8=
EXTT9=
PLAYORDER=
